<?xml version="1.0" encoding="utf-8"?>
<!-- Generator: Adobe Illustrator 27.1.1, SVG Export Plug-In . SVG Version: 6.00 Build 0)  -->
<svg version="1.1" id="Layer_1" xmlns="http://www.w3.org/2000/svg" xmlns:xlink="http://www.w3.org/1999/xlink" x="0px" y="0px"
	 viewBox="0 0 20 20" style="enable-background:new 0 0 20 20;" xml:space="preserve">
<style type="text/css">
	.st0{fill:#FFFFFF;}
</style>
<g>
	<path class="st0" d="M15.5,15.3c0.7-0.3,1-0.7,1.3-1c0.3-0.4,0.4-1,0.4-1.7c0-0.9-0.4-1.7-1-2.2c-0.7-0.5-1.6-0.8-2.8-0.8H9.5v9.8
		h2.4v-3.5h1.3l1.7,3.5h2.5v-0.1L15.5,15.3z M14.5,13.7c-0.3,0.3-0.5,0.4-1,0.4H12v-2.8h1.4c0.4,0,0.8,0.1,1,0.4s0.4,0.5,0.4,1
		C14.9,13.2,14.7,13.6,14.5,13.7z"/>
	<path class="st0" d="M8.4,7.3h1.4c0.4,0,0.8,0.1,1,0.4c0.3,0.3,0.4,0.5,0.4,0.9c0,0.3,0,0.4-0.1,0.5h2.2h0.1c0-0.3,0.1-0.5,0.1-0.8
		c0-0.9-0.4-1.7-1-2.2s-1.6-0.8-2.8-0.8H6.1v10h2.4v-3.5h0.8V10H8.4V7.3z"/>
	<polygon class="st0" points="4.9,0.6 2.5,0.6 2.5,10.5 5.7,10.5 5.7,8.7 4.9,8.7 	"/>
</g>
</svg>
